<svg width="20" height="20" viewBox="0 0 20 20" fill="none" xmlns="http://www.w3.org/2000/svg">
<rect x="0.5" y="0.5" width="19" height="19" stroke="black"/>
<path d="M18.2944 3.58702H15.9299V1.35543C15.9298 0.608046 15.3218 0 14.5744 0H5.42569C4.67831 0 4.07027 0.608046 4.07027 1.35543V3.58702H1.70574C1.43453 3.58702 1.21387 3.80765 1.21387 4.0789V7.42557C1.21387 7.69678 1.43449 7.91741 1.70574 7.91741H2.23695L2.49844 10.036C2.51828 10.197 2.66484 10.3116 2.82601 10.2915C2.98707 10.2717 3.10148 10.125 3.0816 9.96397L2.82898 7.91741H17.171L15.7522 19.4123H4.24788L3.30101 11.7413C3.28117 11.5803 3.13468 11.4658 2.97343 11.4858C2.81238 11.5056 2.69797 11.6523 2.71785 11.8133L3.67296 19.5515C3.70453 19.8072 3.92941 20 4.19613 20H15.8041C16.0708 20 16.2957 19.8072 16.3273 19.5515L17.7633 7.91745H18.2945C18.5657 7.91745 18.7863 7.69682 18.7863 7.42561V4.07894C18.7862 3.80769 18.5656 3.58702 18.2944 3.58702ZM5.42569 0.587616H14.5743C14.9977 0.587616 15.3422 0.93203 15.3422 1.35543V3.58702H13.9803V2.41464C13.9803 2.07218 13.7017 1.79355 13.3592 1.79355H12.4681C12.3058 1.79355 12.1742 1.92511 12.1742 2.08738C12.1742 2.24964 12.3058 2.38121 12.4681 2.38121H13.3592C13.3776 2.38121 13.3926 2.39621 13.3926 2.41464V3.58702H6.60741V2.41464C6.60741 2.39621 6.62241 2.38121 6.64085 2.38121H10.6399C10.8022 2.38121 10.9337 2.24964 10.9337 2.08738C10.9337 1.92511 10.8022 1.79355 10.6399 1.79355H6.64089C6.29843 1.79355 6.0198 2.07218 6.0198 2.41464V3.58702H4.65796V1.35543C4.65796 0.932069 5.00234 0.587616 5.42569 0.587616ZM18.1986 7.32979H18.1986H17.8356H2.16445H1.80148V4.17464H4.07031H6.0198H13.9803H15.9299H18.1986V7.32979Z" fill="white"/>
<path d="M10.2399 9.12219H9.76004C9.23109 9.12219 8.80078 9.5525 8.80078 10.0814V16.759C8.80078 17.2879 9.23109 17.7182 9.76004 17.7182H10.2399C10.7688 17.7182 11.1991 17.2879 11.1991 16.759V10.0814C11.1991 9.5525 10.7688 9.12219 10.2399 9.12219ZM10.6115 16.759C10.6115 16.9639 10.4448 17.1306 10.2399 17.1306H9.76004C9.55516 17.1306 9.38844 16.9639 9.38844 16.759V10.0814C9.38844 9.87653 9.55512 9.70985 9.76004 9.70985H10.2399C10.4448 9.70985 10.6115 9.87653 10.6115 10.0814V16.759Z" fill="white"/>
<path d="M14.488 9.15227L14.0095 9.11625C13.754 9.09719 13.5063 9.17844 13.3121 9.34551C13.1178 9.51258 13.0002 9.74532 12.981 10.0008L12.4798 16.6595C12.4401 17.1869 12.8369 17.6483 13.3644 17.688L13.8428 17.7241H13.8428C13.8674 17.7259 13.8919 17.7268 13.9163 17.7268C14.1455 17.7268 14.3647 17.6458 14.5403 17.4948C14.7345 17.3277 14.8521 17.095 14.8713 16.8395L15.3726 10.1808C15.4122 9.65332 15.0154 9.19192 14.488 9.15227ZM14.7866 10.1367L14.2854 16.7954C14.2779 16.8944 14.2324 16.9846 14.1571 17.0493C14.0819 17.114 13.9859 17.1456 13.8869 17.1381L13.4085 17.1021C13.2041 17.0867 13.0504 16.908 13.0658 16.7037L13.567 10.045C13.5744 9.94598 13.62 9.85578 13.6952 9.7911C13.7632 9.73262 13.8481 9.70121 13.937 9.70121C13.9464 9.70121 13.9559 9.70157 13.9654 9.70227L14.4439 9.73828C14.5429 9.74575 14.6331 9.79129 14.6978 9.86653C14.7625 9.9418 14.7941 10.0378 14.7866 10.1367Z" fill="white"/>
<path d="M7.52026 16.6596L7.01905 10.0009C6.99983 9.74542 6.88225 9.51268 6.688 9.34561C6.49378 9.17858 6.246 9.09737 5.99054 9.11636L5.51206 9.15237C4.9846 9.1921 4.5878 9.65351 4.62749 10.1809L5.1287 16.8396C5.14788 17.0952 5.2655 17.3279 5.45976 17.4949C5.63534 17.6459 5.85452 17.727 6.0837 17.727C6.10811 17.727 6.13268 17.726 6.15722 17.7242L6.63573 17.6882C7.16311 17.6484 7.55995 17.187 7.52026 16.6596ZM6.59151 17.1021L6.113 17.1381C6.01413 17.1456 5.91804 17.114 5.84276 17.0493C5.76749 16.9846 5.72194 16.8944 5.71452 16.7954L5.21331 10.1367C5.20593 10.0378 5.23749 9.94182 5.30222 9.86655C5.36694 9.79128 5.4571 9.74573 5.55608 9.73831L6.03456 9.70229C6.04409 9.70155 6.05354 9.70124 6.06304 9.70124C6.15182 9.70124 6.23675 9.73261 6.30475 9.79112C6.38003 9.85585 6.42557 9.946 6.433 10.045L6.93421 16.7037C6.9496 16.908 6.79585 17.0868 6.59151 17.1021Z" fill="white"/>
</svg>
